<svg width="118" height="19" viewBox="0 0 118 19" fill="none" xmlns="http://www.w3.org/2000/svg">
<g clip-path="url(#clip0_344_10)">
<path fill-rule="evenodd" clip-rule="evenodd" d="M34.0938 14.0083L28.3261 17.7876L30.1382 11.1344L24.7615 6.81689L31.6491 6.48431L34.0938 0.0366211L36.5385 6.48431L43.426 6.81689L38.0494 11.1344L39.8614 17.7876L34.0938 14.0083Z" fill="#FFC54F"/>
</g>
<g clip-path="url(#clip1_344_10)">
<path fill-rule="evenodd" clip-rule="evenodd" d="M58.7188 14.0083L52.9511 17.7876L54.7632 11.1344L49.3865 6.81689L56.2741 6.48431L58.7188 0.0366211L61.1635 6.48431L68.051 6.81689L62.6744 11.1344L64.4864 17.7876L58.7188 14.0083Z" fill="#FFC54F"/>
</g>
<g clip-path="url(#clip2_344_10)">
<path fill-rule="evenodd" clip-rule="evenodd" d="M83.3438 14.0083L77.5761 17.7876L79.3882 11.1344L74.0115 6.81689L80.8991 6.48431L83.3438 0.0366211L85.7885 6.48431L92.676 6.81689L87.2994 11.1344L89.1114 17.7876L83.3438 14.0083Z" fill="#FFC54F"/>
</g>
<path fill-rule="evenodd" clip-rule="evenodd" d="M9.46878 14.0083L3.70114 17.7876L5.51321 11.1344L0.136536 6.81689L7.0241 6.48431L9.46878 0.0366211L11.9135 6.48431L18.801 6.81689L13.4244 11.1344L15.2364 17.7876L9.46878 14.0083Z" fill="#FFC54F"/>
<g clip-path="url(#clip3_344_10)">
<path fill-rule="evenodd" clip-rule="evenodd" d="M107.969 14.0083L102.201 17.7876L104.013 11.1344L98.6365 6.81689L105.524 6.48431L107.969 0.0366211L110.413 6.48431L117.301 6.81689L111.924 11.1344L113.736 17.7876L107.969 14.0083Z" fill="#FFC54F"/>
</g>
<defs>
<clipPath id="clip0_344_10">
<rect width="19.625" height="17.9896" fill="white" transform="translate(24.2812 0.0366211)"/>
</clipPath>
<clipPath id="clip1_344_10">
<rect width="19.625" height="17.9896" fill="white" transform="translate(48.9062 0.0366211)"/>
</clipPath>
<clipPath id="clip2_344_10">
<rect width="19.625" height="17.9896" fill="white" transform="translate(73.5312 0.0366211)"/>
</clipPath>
<clipPath id="clip3_344_10">
<rect width="19.625" height="17.9896" fill="white" transform="translate(98.1562 0.0366211)"/>
</clipPath>
</defs>
</svg>
