<svg width="160" height="30" viewBox="0 0 160 30" fill="none" xmlns="http://www.w3.org/2000/svg">
<path d="M4.87558 3.29559C7.02976 1.33372 9.95485 0.188585 12.9195 0.0461529C13.9341 0.0461529 14.9518 0.0519279 15.9665 0.0432129C15.9146 1.08088 15.9665 2.12137 15.936 3.15898C15.7928 5.47838 14.8939 7.74544 13.3796 9.56488C11.4113 12.0122 8.4009 13.6543 5.20465 14.0787C3.80914 14.2938 2.39227 14.1572 0.98769 14.195C1.01205 13.0527 0.935872 11.9076 1.03032 10.7682C1.30458 7.9431 2.70313 5.23714 4.87558 3.29559Z" fill="#81818B"/>
<path d="M16.906 0.0432129C17.9938 0.0548679 19.0816 0.0374383 20.1723 0.0490408C22.8872 0.232108 25.5655 1.22614 27.6098 2.94977C29.8645 4.79536 31.4095 7.43448 31.8054 10.2538C31.9792 11.5617 31.8694 12.8841 31.9366 14.1978C30.9859 14.195 30.0382 14.1921 29.0875 14.1978C26.7507 14.1368 24.4533 13.416 22.4971 12.2011C21.5953 11.5849 20.669 10.9601 19.9926 10.1055C18.5087 8.52438 17.5002 6.53925 17.1193 4.4466C16.8329 2.99329 16.9487 1.51101 16.906 0.0432129Z" fill="#81818B"/>
<path d="M0.989715 15.029C1.95561 15.0813 2.92455 14.9854 3.88735 15.0871C8.00986 15.1714 12.0105 17.3803 14.1464 20.7431C15.3713 22.6265 16.0294 24.8589 15.9441 27.0762C15.941 27.8034 15.9533 28.5268 15.9319 29.2508C14.4024 29.2067 12.8576 29.3259 11.3432 29.044C7.97941 28.5037 4.88679 26.5939 3.02504 23.8676C1.61431 21.8854 0.910492 19.4643 0.983625 17.0722C0.983625 16.3892 0.983625 15.7091 0.989715 15.029Z" fill="#81818B"/>
<path d="M26.7883 15.337C28.4459 14.9853 30.1548 15.0434 31.8401 15.0434L31.9136 15.1132C31.8768 16.6333 32.0018 18.1708 31.682 19.6735C31.0085 23.045 28.6685 26.0559 25.5209 27.7097C23.5617 28.7506 21.3131 29.2619 19.0736 29.2388C18.3575 29.242 17.6384 29.2273 16.9224 29.2472C16.9224 27.9888 16.8676 26.7248 17.0169 25.4717C17.3642 22.4404 19.0827 19.6182 21.5538 17.7116C23.0833 16.5606 24.881 15.7265 26.7883 15.337Z" fill="#81818B"/>
<path d="M44.4216 23.6211C44.4216 24.1328 44.2358 24.5656 43.8651 24.92C43.5139 25.2547 43.0703 25.422 42.5343 25.422C42.0182 25.422 41.5851 25.2547 41.2344 24.92C40.8837 24.5656 40.7083 24.1328 40.7083 23.6211V5.37747C40.7083 4.86575 40.8837 4.44266 41.2344 4.10813C41.6055 3.75386 42.0597 3.57672 42.5962 3.57672C43.1322 3.57672 43.5654 3.75386 43.8956 4.10813C44.2463 4.44266 44.4216 4.86575 44.4216 5.37747V23.6211Z" fill="#81818B"/>
<path d="M59.3274 9.62848C59.8635 9.62848 60.3071 9.80556 60.6583 10.1598C61.0085 10.4944 61.1838 10.9175 61.1838 11.4292V18.9274C61.1838 21.0135 60.5754 22.6666 59.3584 23.8868C58.1409 25.107 56.3874 25.7168 54.0969 25.7168C51.8073 25.7168 50.0533 25.107 48.8364 23.8868C47.6399 22.6666 47.0414 21.0135 47.0414 18.9274V11.4292C47.0414 10.9175 47.2167 10.4944 47.5674 10.1598C47.9181 9.80556 48.3618 9.62848 48.8983 9.62848C49.4349 9.62848 49.878 9.80556 50.2287 10.1598C50.5799 10.4944 50.7552 10.9175 50.7552 11.4292V18.9274C50.7552 20.1278 51.034 21.0233 51.5905 21.6137C52.1475 22.1845 52.9833 22.4698 54.0969 22.4698C55.2324 22.4698 56.0777 22.1845 56.6352 21.6137C57.1917 21.0233 57.4705 20.1278 57.4705 18.9274V11.4292C57.4705 10.9175 57.6459 10.4944 57.9966 10.1598C58.3473 9.80556 58.7909 9.62848 59.3274 9.62848Z" fill="#81818B"/>
<path d="M72.3532 9.33325C74.0038 9.33325 75.2208 9.71698 76.0051 10.4845C76.7889 11.2324 77.305 12.2065 77.5523 13.407L77.0262 13.1413L77.274 12.669C77.5213 12.2163 77.903 11.7342 78.4191 11.2225C78.9346 10.6912 79.5536 10.2484 80.2755 9.89411C81.0183 9.52015 81.8436 9.33325 82.7514 9.33325C84.2371 9.33325 85.3611 9.63828 86.1245 10.2483C86.9088 10.8584 87.4449 11.6752 87.7336 12.6986C88.0229 13.7022 88.1673 14.824 88.1673 16.0639V23.6211C88.1673 24.1328 87.9919 24.5656 87.6407 24.92C87.29 25.2547 86.8469 25.422 86.3103 25.422C85.7743 25.422 85.3302 25.2547 84.9795 24.92C84.6288 24.5656 84.4534 24.1328 84.4534 23.6211V16.0639C84.4534 15.4144 84.371 14.8339 84.2061 14.3221C84.0408 13.7908 83.7415 13.3677 83.3084 13.0528C82.8753 12.7379 82.2563 12.5804 81.452 12.5804C80.6676 12.5804 79.9972 12.7379 79.4402 13.0528C78.8826 13.3677 78.46 13.7908 78.1713 14.3221C77.903 14.8339 77.7686 15.4144 77.7686 16.0639V23.6211C77.7686 24.1328 77.5932 24.5656 77.2431 24.92C76.8924 25.2547 76.4482 25.422 75.9122 25.422C75.3756 25.422 74.932 25.2547 74.5818 24.92C74.2306 24.5656 74.0553 24.1328 74.0553 23.6211V16.0639C74.0553 15.4144 73.9728 14.8339 73.8075 14.3221C73.6426 13.7908 73.3434 13.3677 72.9102 13.0528C72.4771 12.7379 71.8576 12.5804 71.0533 12.5804C70.2695 12.5804 69.5991 12.7379 69.0415 13.0528C68.485 13.3677 68.0619 13.7908 67.7731 14.3221C67.5048 14.8339 67.371 15.4144 67.371 16.0639V23.6211C67.371 24.1328 67.1956 24.5656 66.8449 24.92C66.4937 25.2547 66.0506 25.422 65.514 25.422C64.9775 25.422 64.5344 25.2547 64.1832 24.92C63.8325 24.5656 63.6571 24.1328 63.6571 23.6211V11.4292C63.6571 10.9175 63.8325 10.4943 64.1832 10.1598C64.5344 9.80554 64.9775 9.62846 65.514 9.62846C66.0506 9.62846 66.4937 9.80554 66.8449 10.1598C67.1956 10.4943 67.371 10.9175 67.371 11.4292V12.6986L66.9063 12.61C67.0922 12.2754 67.3505 11.9211 67.6802 11.5472C68.0104 11.1536 68.4126 10.7895 68.8872 10.455C69.3618 10.1204 69.8878 9.85473 70.4653 9.65791C71.0433 9.44145 71.6728 9.33325 72.3532 9.33325Z" fill="#81818B"/>
<path d="M94.136 23.6211C94.136 24.1328 93.9607 24.5656 93.6095 24.92C93.2593 25.2547 92.8157 25.422 92.2791 25.422C91.7431 25.422 91.2989 25.2547 90.9482 24.92C90.5981 24.5656 90.4227 24.1328 90.4227 23.6211V11.4292C90.4227 10.9175 90.5981 10.4943 90.9482 10.1598C91.2989 9.80555 91.7431 9.62846 92.2791 9.62846C92.8157 9.62846 93.2593 9.80555 93.6095 10.1598C93.9607 10.4943 94.136 10.9175 94.136 11.4292V23.6211ZM92.2481 7.70959C91.5467 7.70959 91.0517 7.60139 90.7624 7.38488C90.4742 7.16842 90.3298 6.78464 90.3298 6.2336V5.67269C90.3298 5.10202 90.4847 4.71819 90.7934 4.52142C91.1236 4.30491 91.6192 4.19666 92.2791 4.19666C93.0015 4.19666 93.5071 4.30491 93.7953 4.52142C94.0846 4.73788 94.2289 5.12165 94.2289 5.67269V6.2336C94.2289 6.80433 94.0741 7.19792 93.7643 7.41438C93.4556 7.6112 92.9495 7.70959 92.2481 7.70959Z" fill="#81818B"/>
<path d="M105.256 9.33325C106.783 9.33325 107.938 9.63828 108.722 10.2483C109.527 10.8584 110.073 11.6752 110.362 12.6986C110.672 13.7022 110.826 14.824 110.826 16.0639V23.6211C110.826 24.1328 110.651 24.5656 110.3 24.92C109.95 25.2547 109.506 25.422 108.969 25.422C108.433 25.422 107.99 25.2547 107.639 24.92C107.288 24.5656 107.112 24.1328 107.112 23.6211V16.0639C107.112 15.4144 107.02 14.8339 106.835 14.3221C106.669 13.7908 106.36 13.3677 105.905 13.0528C105.452 12.7379 104.802 12.5804 103.956 12.5804C103.131 12.5804 102.429 12.7379 101.852 13.0528C101.295 13.3677 100.862 13.7908 100.552 14.3221C100.263 14.8339 100.118 15.4144 100.118 16.0639V23.6211C100.118 24.1328 99.9435 24.5656 99.5928 24.92C99.2421 25.2547 98.798 25.422 98.262 25.422C97.7254 25.422 97.2818 25.2547 96.9316 24.92C96.5804 24.5656 96.405 24.1328 96.405 23.6211V11.4292C96.405 10.9175 96.5804 10.4943 96.9316 10.1598C97.2818 9.80554 97.7254 9.62846 98.262 9.62846C98.798 9.62846 99.2421 9.80554 99.5928 10.1598C99.9435 10.4943 100.118 10.9175 100.118 11.4292V12.6986L99.6548 12.61C99.8406 12.2754 100.108 11.9211 100.459 11.5472C100.81 11.1536 101.223 10.7895 101.697 10.455C102.172 10.1204 102.708 9.85473 103.306 9.65791C103.905 9.44145 104.555 9.33325 105.256 9.33325Z" fill="#81818B"/>
<path d="M129.2 17.5398C129.2 19.1536 128.818 20.5805 128.055 21.8203C127.312 23.0405 126.301 23.995 125.022 24.6837C123.763 25.3728 122.35 25.7168 120.782 25.7168C119.214 25.7168 117.79 25.3728 116.511 24.6837C115.253 23.995 114.242 23.0405 113.479 21.8203C112.736 20.5805 112.365 19.1536 112.365 17.5398C112.365 15.9261 112.736 14.5091 113.479 13.2889C114.242 12.0491 115.253 11.0848 116.511 10.396C117.79 9.68747 119.214 9.33325 120.782 9.33325C122.35 9.33325 123.763 9.68747 125.022 10.396C126.301 11.0848 127.312 12.0491 128.055 13.2889C128.818 14.5091 129.2 15.9261 129.2 17.5398ZM125.486 17.5398C125.486 16.5362 125.27 15.6703 124.836 14.9421C124.423 14.1942 123.856 13.6137 123.134 13.2004C122.433 12.7871 121.649 12.5804 120.782 12.5804C119.916 12.5804 119.121 12.7871 118.399 13.2004C117.697 13.6137 117.13 14.1942 116.697 14.9421C116.285 15.6703 116.078 16.5362 116.078 17.5398C116.078 18.5239 116.285 19.3898 116.697 20.1377C117.13 20.8658 117.697 21.4365 118.399 21.8498C119.121 22.2632 119.916 22.4697 120.782 22.4697C121.649 22.4697 122.433 22.2632 123.134 21.8498C123.856 21.4365 124.423 20.8658 124.836 20.1377C125.27 19.3898 125.486 18.5239 125.486 17.5398Z" fill="#81818B"/>
<path d="M143.041 9.62848C143.577 9.62848 144.021 9.80556 144.372 10.1598C144.722 10.4944 144.898 10.9175 144.898 11.4292V18.9274C144.898 21.0135 144.289 22.6666 143.072 23.8868C141.854 25.107 140.101 25.7168 137.811 25.7168C135.521 25.7168 133.767 25.107 132.55 23.8868C131.353 22.6666 130.755 21.0135 130.755 18.9274V11.4292C130.755 10.9175 130.93 10.4944 131.281 10.1598C131.632 9.80556 132.075 9.62848 132.612 9.62848C133.148 9.62848 133.592 9.80556 133.943 10.1598C134.293 10.4944 134.469 10.9175 134.469 11.4292V18.9274C134.469 20.1278 134.747 21.0233 135.304 21.6137C135.861 22.1845 136.697 22.4698 137.811 22.4698C138.945 22.4698 139.792 22.1845 140.348 21.6137C140.906 21.0233 141.184 20.1278 141.184 18.9274V11.4292C141.184 10.9175 141.36 10.4944 141.71 10.1598C142.061 9.80556 142.505 9.62848 143.041 9.62848Z" fill="#81818B"/>
<path d="M146.411 22.9716C146.205 22.6961 146.112 22.3419 146.133 21.9089C146.154 21.4759 146.422 21.102 146.938 20.7871C147.268 20.5903 147.618 20.5116 147.99 20.551C148.361 20.5707 148.722 20.7477 149.073 21.0823C149.672 21.653 150.3 22.0958 150.961 22.4107C151.621 22.7256 152.446 22.883 153.436 22.883C153.746 22.8633 154.086 22.824 154.457 22.765C154.829 22.6863 155.149 22.5288 155.417 22.2927C155.705 22.0368 155.85 21.653 155.85 21.1413C155.85 20.7084 155.695 20.364 155.386 20.1081C155.076 19.8523 154.664 19.6359 154.148 19.4587C153.653 19.2816 153.096 19.1143 152.477 18.9569C151.837 18.7797 151.177 18.583 150.496 18.3665C149.836 18.15 149.227 17.8745 148.67 17.5398C148.114 17.1856 147.66 16.7232 147.309 16.1524C146.958 15.5817 146.783 14.8633 146.783 13.9975C146.783 13.0134 147.071 12.177 147.649 11.4882C148.227 10.7994 148.97 10.2681 149.877 9.89411C150.806 9.52015 151.775 9.33325 152.786 9.33325C153.426 9.33325 154.096 9.41195 154.798 9.5694C155.499 9.70716 156.17 9.9433 156.809 10.2779C157.449 10.5927 157.985 11.0159 158.419 11.5472C158.645 11.8424 158.78 12.1967 158.821 12.61C158.862 13.0233 158.666 13.3972 158.233 13.7318C157.924 13.9679 157.563 14.0762 157.15 14.0565C156.738 14.0171 156.397 13.8794 156.129 13.6432C155.778 13.2102 155.304 12.8658 154.705 12.61C154.127 12.3542 153.457 12.2262 152.693 12.2262C152.384 12.2262 152.044 12.2656 151.672 12.3443C151.322 12.4033 151.012 12.551 150.744 12.7871C150.476 13.0036 150.341 13.3578 150.341 13.8498C150.341 14.3025 150.496 14.6666 150.806 14.9421C151.115 15.1979 151.528 15.4144 152.044 15.5916C152.58 15.749 153.148 15.9065 153.746 16.0639C154.365 16.2213 154.994 16.4083 155.633 16.6247C156.273 16.8413 156.861 17.1266 157.397 17.4808C157.934 17.8351 158.367 18.2976 158.697 18.8683C159.028 19.4193 159.192 20.1278 159.192 20.9938C159.192 21.9975 158.883 22.8536 158.264 23.562C157.645 24.2706 156.871 24.8117 155.943 25.1857C155.014 25.5401 154.065 25.7168 153.096 25.7168C151.879 25.7168 150.662 25.5204 149.444 25.1267C148.227 24.7132 147.216 23.995 146.411 22.9716Z" fill="#81818B"/>
</svg>
