<svg width="164" height="35" viewBox="0 0 164 35" fill="none" xmlns="http://www.w3.org/2000/svg">
<path d="M0.173828 23.3943L11.8334 18.341L18.5444 22.1308L19.9002 34.564L11.6301 34.4978L12.8502 25.8539L11.4267 25.0561L4.44444 30.3753L0.173828 23.3943Z" fill="#81818B"/>
<path d="M19.2905 21.5985L29.5945 28.9783L33.6616 21.8645L25.3913 18.6066V17.0109L33.6616 13.6866L29.5945 6.63892L19.2905 14.019V21.5985Z" fill="#81818B"/>
<path d="M18.5444 13.4209L19.9002 0.987793L11.6301 1.12078L12.8502 9.76406L11.4267 10.5619L4.37666 5.24297L0.173828 12.1576L11.8334 17.2107L18.5444 13.4209Z" fill="#81818B"/>
<path d="M61.2524 16.2858V27.934H65.7033V13.0895H59.2217V16.2858H61.2524Z" fill="#81818B"/>
<path d="M61.1132 11.0038C61.5211 11.419 62.1427 11.6266 62.977 11.6266C63.8122 11.6266 64.4239 11.419 64.8129 11.0038C65.2213 10.5702 65.425 10.0284 65.425 9.37842C65.425 8.71015 65.2213 8.1684 64.8129 7.75313C64.4239 7.31974 63.8122 7.10297 62.977 7.10297C62.1427 7.10297 61.5211 7.31974 61.1132 7.75313C60.7242 8.1684 60.5294 8.71015 60.5294 9.37842C60.5294 10.0284 60.7242 10.5702 61.1132 11.0038Z" fill="#81818B"/>
<path d="M45.7575 27.6088C47.0186 28.1685 48.5668 28.4487 50.4027 28.4487C52.1279 28.4487 53.611 28.1864 54.8542 27.6629C56.0969 27.1394 57.0519 26.4078 57.7191 25.4686C58.4058 24.5116 58.7487 23.401 58.7487 22.1368C58.7487 20.909 58.4247 19.8706 57.7753 19.0217C57.1443 18.155 56.2638 17.4778 55.1325 16.9903C54.0011 16.4845 52.6933 16.1685 51.2097 16.0422L49.652 15.9068C48.7248 15.8344 48.057 15.5907 47.6491 15.1752C47.2407 14.76 47.037 14.2723 47.037 13.7126C47.037 13.279 47.1488 12.8819 47.3703 12.5207C47.5935 12.1414 47.9268 11.8435 48.372 11.6267C48.8361 11.4101 49.4016 11.3017 50.0694 11.3017C50.7739 11.3017 51.3582 11.428 51.8218 11.681C51.9237 11.7344 52.0208 11.7916 52.1116 11.8522L52.1337 11.8673C52.1678 11.8901 52.2014 11.9139 52.2339 11.9379C52.5159 12.1475 52.74 12.3959 52.907 12.6832C53.1474 13.0806 53.2687 13.5228 53.2687 14.0106H57.7191C57.7191 12.7102 57.4131 11.5816 56.8014 10.6245C56.1898 9.64935 55.3089 8.89996 54.1591 8.37606C53.0272 7.83431 51.6643 7.56342 50.0694 7.56342C48.5484 7.56342 47.2317 7.81641 46.1187 8.32199C45.0063 8.80966 44.1348 9.5139 43.5042 10.4347C42.8916 11.3558 42.5855 12.4485 42.5855 13.7126C42.5855 15.4642 43.1887 16.8727 44.3941 17.9384C45.5995 19.0038 47.2134 19.6178 49.2346 19.7803L50.765 19.9157C52.0071 20.0241 52.907 20.2679 53.4635 20.647C54.0195 21.0082 54.2977 21.5048 54.2977 22.1368C54.2977 22.4274 54.2489 22.6998 54.1512 22.9543C54.0788 23.1433 53.979 23.3223 53.853 23.4914C53.5554 23.8704 53.1201 24.1684 52.5453 24.3854C51.9704 24.602 51.2564 24.7102 50.4027 24.7102C49.4572 24.7102 48.6876 24.5841 48.0943 24.3308C47.5005 24.0601 47.0559 23.708 46.7582 23.2748C46.4805 22.8411 46.3419 22.3718 46.3419 21.866H41.9182C41.9182 23.1482 42.2427 24.2861 42.8916 25.279C43.541 26.2544 44.496 27.0312 45.7575 27.6088Z" fill="#81818B"/>
<path d="M75.6348 28.1233C74.0949 28.1233 72.8528 27.943 71.9067 27.5815C70.9607 27.2025 70.2656 26.5792 69.8204 25.7125C69.3941 24.8275 69.1804 23.6359 69.1804 22.1368V16.2587H66.8715V13.0895H69.1804V9.08057H73.3253V13.0895H77.7768V16.2587H73.3253V22.2996C73.3253 23.0038 73.5111 23.5455 73.8818 23.9245C74.2713 24.286 74.8184 24.4664 75.5235 24.4664H77.7768V28.1233H75.6348Z" fill="#81818B"/>
<path fill-rule="evenodd" clip-rule="evenodd" d="M83.1359 27.7985C84.1371 28.2316 85.2874 28.4486 86.5852 28.4486C87.8646 28.4486 88.9965 28.2316 89.9793 27.7985C90.9621 27.3649 91.7785 26.76 92.4274 25.9837C93.0763 25.2069 93.5125 24.3219 93.7346 23.329H89.6454C89.4601 23.7805 89.1078 24.1595 88.5886 24.4664C88.0693 24.7734 87.401 24.9273 86.5852 24.9273C86.0796 24.9273 85.6281 24.8686 85.2301 24.7523C84.9272 24.6637 84.6558 24.5416 84.4153 24.3854C83.8588 24.0243 83.4509 23.5183 83.191 22.8684C83.1191 22.6832 83.0577 22.4895 83.0057 22.2878C82.9527 22.0835 82.9102 21.8708 82.8781 21.6494H94.0129V20.1866C94.0129 18.8322 93.7162 17.5862 93.123 16.4485C92.5292 15.2926 91.6666 14.3626 90.5358 13.6583C89.4228 12.936 88.0504 12.5748 86.4182 12.5748C85.1755 12.5748 84.0625 12.7916 83.0797 13.225C82.1158 13.6403 81.3089 14.209 80.66 14.9314C80.0111 15.6538 79.5103 16.4756 79.1569 17.3966C78.8236 18.2994 78.6566 19.2475 78.6566 20.2407V20.7825C78.6566 21.7397 78.8236 22.6787 79.1569 23.5997C79.5103 24.5027 80.0111 25.3241 80.66 26.0646C81.3273 26.7873 82.1521 27.3649 83.1359 27.7985ZM82.9548 18.9709C82.9669 18.9135 82.98 18.8571 82.9942 18.8015C83.033 18.6483 83.0771 18.5015 83.128 18.3613C83.1564 18.2815 83.1868 18.2036 83.2194 18.1279C83.4971 17.4597 83.9056 16.9541 84.4432 16.611C84.6442 16.4828 84.8621 16.3785 85.0957 16.2983C85.4895 16.1637 85.9305 16.0963 86.4182 16.0963C87.1789 16.0963 87.8089 16.2679 88.3098 16.611C88.829 16.936 89.2186 17.4145 89.4784 18.0466C89.4994 18.0976 89.5194 18.1495 89.5388 18.2021C89.5693 18.2858 89.5981 18.3718 89.6244 18.4599C89.6638 18.591 89.6979 18.7267 89.7283 18.8669C89.7504 18.9702 89.7693 19.0761 89.7861 19.1844H82.9117C82.9249 19.112 82.939 19.0409 82.9548 18.9709Z" fill="#81818B"/>
<path d="M95.8499 27.934V13.0895H99.3831V16.8282C99.4309 16.606 99.4855 16.3927 99.5464 16.1881C99.5989 16.0158 99.6551 15.8496 99.7165 15.6899C100.106 14.6786 100.69 13.9203 101.469 13.4145C102.248 12.8908 103.203 12.6291 104.335 12.6291H104.529C105.679 12.6291 106.634 12.8908 107.395 13.4145C108.174 13.9203 108.758 14.6786 109.147 15.6899L109.178 15.7663L109.204 15.8361C109.222 15.7868 109.24 15.7381 109.258 15.6899C109.666 14.6786 110.26 13.9203 111.039 13.4145C111.818 12.8908 112.773 12.6291 113.905 12.6291H114.099C115.249 12.6291 116.213 12.8908 116.992 13.4145C117.79 13.9203 118.393 14.6786 118.8 15.6899C119.208 16.7013 119.413 17.9655 119.413 19.4823V27.934H114.961V19.2385C114.961 18.4258 114.739 17.7667 114.294 17.2612C113.867 16.7554 113.255 16.5026 112.458 16.5026C111.66 16.5026 111.03 16.7645 110.566 17.2882C110.103 17.7938 109.871 18.471 109.871 19.3198V27.934H105.392V19.2385C105.392 18.4258 105.169 17.7667 104.724 17.2612C104.298 16.7554 103.694 16.5026 102.916 16.5026C102.099 16.5026 101.46 16.7645 100.996 17.2882C100.533 17.7938 100.301 18.471 100.301 19.3198V27.934H95.8499Z" fill="#81818B"/>
<path fill-rule="evenodd" clip-rule="evenodd" d="M131.303 25.0735V27.934H134.835V18.8322C134.835 17.4597 134.557 16.3401 134.001 15.4732C133.444 14.5883 132.629 13.9292 131.553 13.4958C130.496 13.0624 129.188 12.8456 127.63 12.8456C127.293 12.8456 126.94 12.8491 126.573 12.8564C126.356 12.8607 126.133 12.8661 125.906 12.8727C125.293 12.8908 124.7 12.9179 124.125 12.9541L123.686 12.9828C123.46 12.9981 123.249 13.0132 123.049 13.0284C122.9 13.0397 122.757 13.0511 122.623 13.0624V16.7194C123.198 16.6832 123.838 16.647 124.543 16.611C124.74 16.601 124.935 16.5916 125.129 16.5829C125.409 16.5702 125.685 16.5593 125.959 16.5497C126.175 16.5421 126.389 16.5353 126.601 16.5296C127.269 16.5116 127.807 16.5026 128.215 16.5026C129.03 16.5026 129.624 16.6921 129.995 17.0714C130.366 17.4507 130.551 18.0195 130.551 18.7781V18.8322H127.797C126.444 18.8322 125.247 19.0038 124.208 19.3469C123.17 19.6719 122.363 20.1866 121.789 20.8908C121.213 21.5772 120.926 22.4621 120.926 23.5455C120.926 24.5389 121.158 25.3966 121.621 26.1192C122.085 26.823 122.725 27.3649 123.541 27.7439C124.376 28.1233 125.34 28.313 126.434 28.313C127.491 28.313 128.382 28.1233 129.105 27.7439C129.847 27.3649 130.422 26.823 130.83 26.1192C130.902 26.0002 130.968 25.8771 131.031 25.7492C131.119 25.5684 131.198 25.3782 131.267 25.1787L131.303 25.0735ZM130.551 22.435V21.2431H127.769C126.99 21.2431 126.388 21.4326 125.961 21.8119C125.553 22.1731 125.349 22.6697 125.349 23.3017C125.349 23.5992 125.4 23.8695 125.501 24.1134C125.604 24.3576 125.757 24.5747 125.961 24.7644C126.388 25.1259 126.99 25.3062 127.769 25.3062C127.917 25.3062 128.061 25.2991 128.199 25.2852C128.312 25.2735 128.422 25.257 128.529 25.236C128.732 25.1957 128.925 25.1375 129.105 25.0623C129.513 24.8821 129.847 24.5841 130.106 24.1684C130.366 23.7531 130.515 23.1751 130.551 22.435Z" fill="#81818B"/>
<path d="M137.499 27.934V13.0895H141.032V17.9892C141.201 16.5905 141.628 15.4626 142.312 14.6064C143.239 13.4688 144.574 12.9 146.318 12.9H146.902V16.638H145.789C144.566 16.638 143.62 16.963 142.952 17.6132C142.284 18.2453 141.95 19.1663 141.95 20.3761V27.934H137.499Z" fill="#81818B"/>
<path d="M152.547 20.9992H154.021L158.834 27.934H163.841L157.739 19.4173L162.756 13.0895H158.083L152.547 20.1478V8.15948H148.096V27.934H152.547V20.9992Z" fill="#81818B"/>
</svg>
