<svg width="164" height="35" viewBox="0 0 164 35" fill="none" xmlns="http://www.w3.org/2000/svg">
<path fill-rule="evenodd" clip-rule="evenodd" d="M6.59531 9.23603C9.33565 5.73381 13.7239 3.46487 18.6698 3.46487C23.6448 3.46487 28.0553 5.76059 30.7924 9.29793C30.6759 9.41175 30.5698 9.52972 30.4737 9.64753C29.9724 10.2644 29.5951 11.0589 29.293 11.8659C28.6844 13.4886 28.2202 15.6084 27.7904 17.5934L27.7522 17.7719C27.3234 19.7532 26.9248 21.5958 26.4428 22.9637C26.2263 23.5782 26.021 24.0127 25.8389 24.291C25.6489 24.0105 25.4334 23.5707 25.2052 22.9474C24.6898 21.5402 24.2562 19.6263 23.7967 17.5826L23.7818 17.5157V17.5156C23.3401 15.5526 22.8717 13.4698 22.2876 11.8755C21.9941 11.0747 21.6341 10.288 21.1632 9.67688C20.701 9.07712 19.9317 8.40023 18.8065 8.40023C17.6884 8.40023 16.9156 9.06977 16.4467 9.66281C15.9667 10.27 15.5924 11.0534 15.2842 11.8546C14.6633 13.4682 14.1557 15.5788 13.6833 17.5665L13.6346 17.7719C13.1668 19.7409 12.7295 21.5817 12.2331 22.9522C12.0437 23.4756 11.8648 23.8738 11.703 24.1583C11.5448 23.8751 11.3704 23.4796 11.1861 22.9606C10.7099 21.6193 10.2928 19.83 9.84475 17.9082L9.76631 17.5718C9.30211 15.5829 8.79847 13.4685 8.16879 11.8499C7.85594 11.0457 7.47327 10.2584 6.97809 9.64832C6.86595 9.51024 6.73853 9.37007 6.59531 9.23603ZM4.93678 11.9252C5.0673 12.1701 5.20537 12.4736 5.34812 12.8405C5.89318 14.2415 6.35491 16.1532 6.83041 18.1905L6.92296 18.5874C7.35588 20.4463 7.80622 22.3799 8.33668 23.8738C8.61882 24.6684 8.95954 25.4466 9.39771 26.0514C9.81209 26.6234 10.5555 27.3622 11.6986 27.3622C12.8383 27.3622 13.5835 26.627 14.0007 26.0576C14.4426 25.4541 14.7889 24.6768 15.0767 23.8818C15.6285 22.3583 16.0983 20.3793 16.5479 18.4854V18.4853L16.6167 18.1958C17.1011 16.1574 17.5675 14.2419 18.1086 12.8357C18.3592 12.1843 18.5939 11.7305 18.7981 11.4489C18.9918 11.7281 19.213 12.1747 19.4476 12.8149C19.9631 14.2221 20.3962 16.1361 20.8559 18.1797L20.871 18.2467C21.3125 20.2097 21.7809 22.2925 22.365 23.8866C22.6585 24.6878 23.0185 25.4744 23.4894 26.0854C23.9517 26.6854 24.7209 27.3622 25.8459 27.3622C26.9769 27.3622 27.7434 26.6792 28.2001 26.0739C28.6639 25.4598 29.0127 24.6706 29.2944 23.8707C29.8359 22.3343 30.2664 20.3408 30.6769 18.4443V18.4443L30.7357 18.169C31.1778 16.1278 31.602 14.2213 32.1259 12.8246C32.2393 12.5207 32.3511 12.2616 32.4577 12.044C33.2604 13.792 33.7056 15.7223 33.7056 17.7512C33.7056 25.6412 26.9741 32.0377 18.6698 32.0377C10.3656 32.0377 3.63379 25.6412 3.63379 17.7512C3.63379 15.6762 4.09941 13.7044 4.93678 11.9252ZM18.6698 0.607605C8.70481 0.607605 0.626587 8.28305 0.626587 17.7512C0.626587 27.2193 8.70481 34.8947 18.6698 34.8947C28.635 34.8947 36.7128 27.2193 36.7128 17.7512C36.7128 8.28305 28.635 0.607605 18.6698 0.607605ZM19.0136 11.2097C19.0136 11.2101 19.01 11.2128 19.003 11.2166C19.01 11.2113 19.0136 11.2094 19.0136 11.2097ZM18.5979 11.2117C18.5909 11.2076 18.5875 11.2048 18.5875 11.2045C18.5875 11.2041 18.591 11.2061 18.5979 11.2117ZM25.6173 24.5622C25.6173 24.5622 25.6205 24.5591 25.627 24.5551C25.6205 24.5604 25.6173 24.5626 25.6173 24.5622ZM26.0545 24.5507C26.0615 24.5547 26.0652 24.5573 26.0652 24.5578C26.0652 24.5582 26.0615 24.556 26.0545 24.5507ZM11.3904 24.5879C11.3903 24.5874 11.3947 24.5834 11.4034 24.5777C11.3948 24.5852 11.3904 24.5883 11.3904 24.5879ZM11.9994 24.5803C12.008 24.5861 12.0123 24.5901 12.0123 24.5905C12.0123 24.591 12.0079 24.5883 11.9994 24.5803Z" fill="#81818B"/>
<path d="M46.6758 27.9007L42.3004 13.6801H46.1329L48.728 23.9154L51.7452 13.6801H56.0302L59.0479 23.9154L61.6729 13.6801H65.5054L61.0996 27.9007H57.0865L53.8877 17.2639L50.6894 27.9007H46.6758Z" fill="#81818B"/>
<path d="M71.1287 28.2449C69.8414 28.2449 68.7851 28.0533 67.9603 27.6711C67.136 27.2698 66.5223 26.7442 66.1196 26.0943C65.7175 25.4444 65.5164 24.7277 65.5164 23.9442C65.5164 22.6254 66.0593 21.5549 67.1455 20.733C68.2317 19.9112 69.8618 19.5002 72.0343 19.5002H75.8363V19.1562C75.8363 18.1813 75.5444 17.4646 74.9612 17.0059C74.3779 16.5471 73.6534 16.3178 72.7887 16.3178C72.0038 16.3178 71.3198 16.4993 70.7365 16.8625C70.1532 17.2066 69.791 17.7226 69.6503 18.4107H65.8781C65.9789 17.3786 66.3412 16.4802 66.9644 15.7157C67.6085 14.9512 68.4333 14.3682 69.4387 13.9668C70.4451 13.5463 71.5712 13.3361 72.8186 13.3361C74.9512 13.3361 76.6307 13.8425 77.8581 14.8556C79.085 15.8686 79.6988 17.3022 79.6988 19.1562V27.9007H76.4091L76.0474 25.6072C75.6048 26.3717 74.9811 27.0022 74.1768 27.4995C73.3919 27.9963 72.3761 28.2449 71.1287 28.2449ZM72.0038 25.3776C73.1105 25.3776 73.9652 25.0334 74.5685 24.3455C75.1922 23.6575 75.5849 22.8067 75.746 21.7938H72.4564C71.4305 21.7938 70.6966 21.9754 70.2535 22.3386C69.8114 22.6824 69.5899 23.1129 69.5899 23.6287C69.5899 24.1831 69.8114 24.6131 70.2535 24.9188C70.6966 25.2245 71.2793 25.3776 72.0038 25.3776Z" fill="#81818B"/>
<path d="M85.7788 27.9007L80.2873 13.6801H84.3303L88.1324 24.4317L91.9344 13.6801H95.978L90.456 27.9007H85.7788Z" fill="#81818B"/>
<path d="M103.742 28.2449C102.234 28.2449 100.896 27.9388 99.7291 27.3273C98.5626 26.7155 97.6475 25.8554 96.9834 24.7467C96.3193 23.6385 95.988 22.3577 95.988 20.905C95.988 19.4333 96.3098 18.124 96.9529 16.9772C97.6171 15.8304 98.5222 14.9416 99.6693 14.3108C100.835 13.661 102.203 13.3361 103.773 13.3361C105.241 13.3361 106.539 13.6419 107.666 14.2535C108.792 14.8651 109.667 15.7061 110.291 16.7765C110.934 17.8277 111.257 19.0032 111.257 20.303C111.257 20.5132 111.246 20.733 111.226 20.9624C111.226 21.1918 111.216 21.4307 111.196 21.6792H99.82C99.9003 22.7877 100.303 23.6575 101.027 24.2884C101.771 24.9188 102.667 25.2343 103.713 25.2343C104.497 25.2343 105.151 25.0719 105.674 24.7467C106.217 24.403 106.619 23.9632 106.881 23.4279H110.803C110.522 24.3264 110.049 25.1485 109.385 25.8939C108.741 26.6199 107.937 27.1933 106.971 27.614C106.026 28.0343 104.949 28.2449 103.742 28.2449ZM103.773 16.3178C102.828 16.3178 101.992 16.5758 101.268 17.0919C100.544 17.5888 100.081 18.3534 99.8798 19.3855H107.333C107.273 18.4489 106.911 17.7035 106.247 17.1492C105.583 16.5949 104.759 16.3178 103.773 16.3178Z" fill="#81818B"/>
<path d="M113.298 27.9007V7.25787H117.16V27.9007H113.298Z" fill="#81818B"/>
<path d="M127.171 28.2449C125.663 28.2449 124.325 27.9388 123.158 27.3273C121.992 26.7155 121.077 25.8554 120.413 24.7467C119.748 23.6385 119.417 22.3577 119.417 20.905C119.417 19.4333 119.739 18.124 120.382 16.9772C121.046 15.8304 121.951 14.9416 123.098 14.3108C124.265 13.661 125.633 13.3361 127.202 13.3361C128.67 13.3361 129.968 13.6419 131.095 14.2535C132.221 14.8651 133.097 15.7061 133.72 16.7765C134.363 17.8277 134.686 19.0032 134.686 20.303C134.686 20.5132 134.675 20.733 134.655 20.9624C134.655 21.1918 134.645 21.4307 134.625 21.6792H123.249C123.329 22.7877 123.732 23.6575 124.456 24.2884C125.2 24.9188 126.096 25.2343 127.142 25.2343C127.926 25.2343 128.58 25.0719 129.103 24.7467C129.646 24.403 130.048 23.9632 130.31 23.4279H134.233C133.951 24.3264 133.478 25.1485 132.815 25.8939C132.17 26.6199 131.366 27.1933 130.4 27.614C129.455 28.0343 128.379 28.2449 127.171 28.2449ZM127.202 16.3178C126.257 16.3178 125.422 16.5758 124.697 17.0919C123.973 17.5888 123.511 18.3534 123.309 19.3855H130.762C130.702 18.4489 130.34 17.7035 129.676 17.1492C129.012 16.5949 128.188 16.3178 127.202 16.3178Z" fill="#81818B"/>
<path d="M142.913 28.2449C141.585 28.2449 140.418 28.044 139.413 27.6428C138.406 27.222 137.602 26.6487 136.998 25.9222C136.395 25.1962 136.033 24.3552 135.912 23.3996H139.804C139.925 23.9535 140.248 24.4317 140.77 24.833C141.313 25.2152 142.007 25.4064 142.852 25.4064C143.697 25.4064 144.311 25.244 144.693 24.9188C145.095 24.5941 145.296 24.2212 145.296 23.8008C145.296 23.189 145.015 22.778 144.452 22.5678C143.888 22.3386 143.104 22.1188 142.098 21.9085C141.455 21.7747 140.801 21.6123 140.137 21.4211C139.473 21.23 138.859 20.991 138.296 20.7044C137.753 20.3985 137.31 20.0163 136.968 19.5575C136.626 19.0797 136.455 18.4967 136.455 17.8086C136.455 16.5471 136.978 15.4864 138.025 14.6262C139.09 13.7661 140.579 13.3361 142.49 13.3361C144.261 13.3361 145.669 13.7279 146.715 14.5115C147.781 15.2952 148.414 16.3751 148.616 17.7513H144.965C144.743 16.7001 143.908 16.1744 142.46 16.1744C141.736 16.1744 141.173 16.3082 140.77 16.5758C140.388 16.8434 140.197 17.1779 140.197 17.5793C140.197 17.9998 140.489 18.3343 141.072 18.5828C141.656 18.8312 142.43 19.0606 143.395 19.2709C144.441 19.5002 145.397 19.7582 146.262 20.0449C147.147 20.3125 147.851 20.7235 148.375 21.2778C148.897 21.8129 149.159 22.5869 149.159 23.6C149.179 24.4795 148.937 25.2723 148.435 25.9797C147.932 26.6867 147.208 27.2411 146.262 27.6428C145.317 28.044 144.2 28.2449 142.913 28.2449Z" fill="#81818B"/>
<path d="M157.559 28.2449C156.232 28.2449 155.065 28.044 154.059 27.6428C153.053 27.222 152.249 26.6487 151.645 25.9222C151.042 25.1962 150.679 24.3552 150.559 23.3996H154.451C154.572 23.9535 154.894 24.4317 155.417 24.833C155.96 25.2152 156.654 25.4064 157.499 25.4064C158.344 25.4064 158.958 25.244 159.34 24.9188C159.742 24.5941 159.943 24.2212 159.943 23.8008C159.943 23.189 159.662 22.778 159.098 22.5678C158.535 22.3386 157.751 22.1188 156.745 21.9085C156.101 21.7747 155.447 21.6123 154.783 21.4211C154.12 21.23 153.506 20.991 152.943 20.7044C152.4 20.3985 151.957 20.0163 151.615 19.5575C151.273 19.0797 151.102 18.4967 151.102 17.8086C151.102 16.5471 151.625 15.4864 152.671 14.6262C153.737 13.7661 155.226 13.3361 157.137 13.3361C158.907 13.3361 160.315 13.7279 161.361 14.5115C162.427 15.2952 163.061 16.3751 163.263 17.7513H159.611C159.39 16.7001 158.555 16.1744 157.107 16.1744C156.382 16.1744 155.819 16.3082 155.417 16.5758C155.035 16.8434 154.844 17.1779 154.844 17.5793C154.844 17.9998 155.135 18.3343 155.719 18.5828C156.302 18.8312 157.076 19.0606 158.042 19.2709C159.088 19.5002 160.044 19.7582 160.909 20.0449C161.794 20.3125 162.498 20.7235 163.021 21.2778C163.544 21.8129 163.806 22.5869 163.806 23.6C163.826 24.4795 163.584 25.2723 163.081 25.9797C162.578 26.6867 161.854 27.2411 160.909 27.6428C159.963 28.044 158.847 28.2449 157.559 28.2449Z" fill="#81818B"/>
</svg>
