<svg width="31" height="33" viewBox="0 0 31 33" fill="none" xmlns="http://www.w3.org/2000/svg">
<path d="M16.2332 7.63202C16.2332 3.56279 19.5319 0.264053 23.6012 0.264053H30.9691V7.63202C30.9691 11.7012 27.6704 15 23.6012 15C19.5319 15 16.2332 11.7012 16.2332 7.63202Z" fill="#FF6D35"/>
<path d="M23.6011 32.6771C19.5318 32.6771 16.2331 29.3784 16.2331 25.3091V17.9412H23.6011C27.6703 17.9412 30.969 21.2399 30.969 25.3091C30.969 29.3784 27.6703 32.6771 23.6011 32.6771Z" fill="#5CC97B"/>
<path d="M13.9115 15.6522C13.9115 7.47541 7.78528 0.846939 0.22818 0.846939V25.0214C0.22818 29.1097 3.2913 32.424 7.06996 32.424C10.8485 32.424 13.9115 29.1097 13.9115 25.0214V15.6522Z" fill="#3D96F4"/>
</svg>
